<svg viewBox="0 0 1500 500" xmlns="http://www.w3.org/2000/svg" font-family="'Inter', system-ui, -apple-system, sans-serif">

  <!-- Background -->
  <rect width="1500" height="500" fill="#0d0d0d"/>

  <!-- Subtle radial glow behind chip -->
  <defs>
    <radialGradient id="chipGlow" cx="73%" cy="50%" r="38%">
      <stop offset="0%" stop-color="#E3BB9B" stop-opacity="0.09"/>
      <stop offset="100%" stop-color="#E3BB9B" stop-opacity="0"/>
    </radialGradient>
    <radialGradient id="leftGlow" cx="28%" cy="50%" r="35%">
      <stop offset="0%" stop-color="#E3BB9B" stop-opacity="0.04"/>
      <stop offset="100%" stop-color="#E3BB9B" stop-opacity="0"/>
    </radialGradient>
  </defs>
  <rect width="1500" height="500" fill="url(#chipGlow)"/>
  <rect width="1500" height="500" fill="url(#leftGlow)"/>

  <!-- Background circuit traces (left decorative) -->
  <line x1="0" y1="90"  x2="680" y2="90"  stroke="#E3BB9B" stroke-width="0.5" opacity="0.07"/>
  <line x1="0" y1="180" x2="500" y2="180" stroke="#E3BB9B" stroke-width="0.5" opacity="0.05"/>
  <line x1="0" y1="320" x2="600" y2="320" stroke="#E3BB9B" stroke-width="0.5" opacity="0.06"/>
  <line x1="0" y1="410" x2="450" y2="410" stroke="#E3BB9B" stroke-width="0.5" opacity="0.05"/>
  <line x1="160" y1="0"  x2="160" y2="140" stroke="#E3BB9B" stroke-width="0.5" opacity="0.07"/>
  <line x1="340" y1="0"  x2="340" y2="90"  stroke="#E3BB9B" stroke-width="0.5" opacity="0.05"/>
  <line x1="520" y1="320" x2="520" y2="500" stroke="#E3BB9B" stroke-width="0.5" opacity="0.05"/>
  <line x1="220" y1="410" x2="220" y2="500" stroke="#E3BB9B" stroke-width="0.5" opacity="0.06"/>

  <!-- Vertical divider -->
  <line x1="760" y1="100" x2="760" y2="400" stroke="#E3BB9B" stroke-width="0.75" opacity="0.18"/>

  <!-- ── Left: Brand content ───────────────────────────────── -->

  <!-- Badge pill -->
  <rect x="80" y="122" width="394" height="28" rx="14" fill="rgba(227,187,155,0.1)" stroke="rgba(227,187,155,0.28)" stroke-width="1"/>
  <text x="277" y="141" text-anchor="middle" fill="#E3BB9B" font-size="10.5" font-weight="700" letter-spacing="0.09em">CONTRACT INTELLIGENCE · SEMICONDUCTOR</text>

  <!-- Brand name -->
  <text x="80" y="258" font-size="96" font-weight="800" letter-spacing="-0.03em">
    <tspan fill="#ffffff">Legal</tspan><tspan fill="#E3BB9B">Forensics</tspan>
  </text>

  <!-- Tagline -->
  <text x="80" y="310" fill="#777" font-size="23" font-weight="400" letter-spacing="0.005em">Know where you&#8217;re exposed before you sign.</text>

  <!-- Sub-label: contract types -->
  <text x="80" y="358" fill="#555" font-size="13" font-weight="600" letter-spacing="0.08em">FOUNDRY · OSAT · IP LICENSING · HYPERSCALER · DARPA</text>


  <!-- ── Right: Chip graphic ──────────────────────────────── -->

  <!-- Chip traces to left (toward divider) -->
  <line x1="760" y1="185" x2="1042" y2="185" stroke="#E3BB9B" stroke-width="1" opacity="0.28"/>
  <line x1="760" y1="211" x2="1042" y2="211" stroke="#E3BB9B" stroke-width="1" opacity="0.28"/>
  <line x1="760" y1="237" x2="1042" y2="237" stroke="#E3BB9B" stroke-width="1" opacity="0.28"/>
  <line x1="760" y1="263" x2="1042" y2="263" stroke="#E3BB9B" stroke-width="1" opacity="0.28"/>
  <line x1="760" y1="289" x2="1042" y2="289" stroke="#E3BB9B" stroke-width="1" opacity="0.28"/>
  <line x1="760" y1="315" x2="1042" y2="315" stroke="#E3BB9B" stroke-width="1" opacity="0.28"/>

  <!-- Chip traces to right edge -->
  <line x1="1218" y1="185" x2="1500" y2="185" stroke="#E3BB9B" stroke-width="1" opacity="0.28"/>
  <line x1="1218" y1="211" x2="1500" y2="211" stroke="#E3BB9B" stroke-width="1" opacity="0.28"/>
  <line x1="1218" y1="237" x2="1500" y2="237" stroke="#E3BB9B" stroke-width="1" opacity="0.28"/>
  <line x1="1218" y1="263" x2="1500" y2="263" stroke="#E3BB9B" stroke-width="1" opacity="0.28"/>
  <line x1="1218" y1="289" x2="1500" y2="289" stroke="#E3BB9B" stroke-width="1" opacity="0.28"/>
  <line x1="1218" y1="315" x2="1500" y2="315" stroke="#E3BB9B" stroke-width="1" opacity="0.28"/>

  <!-- Chip traces to top edge -->
  <line x1="1065" y1="0"   x2="1065" y2="162" stroke="#E3BB9B" stroke-width="1" opacity="0.28"/>
  <line x1="1091" y1="0"   x2="1091" y2="162" stroke="#E3BB9B" stroke-width="1" opacity="0.28"/>
  <line x1="1117" y1="0"   x2="1117" y2="162" stroke="#E3BB9B" stroke-width="1" opacity="0.28"/>
  <line x1="1143" y1="0"   x2="1143" y2="162" stroke="#E3BB9B" stroke-width="1" opacity="0.28"/>
  <line x1="1169" y1="0"   x2="1169" y2="162" stroke="#E3BB9B" stroke-width="1" opacity="0.28"/>
  <line x1="1195" y1="0"   x2="1195" y2="162" stroke="#E3BB9B" stroke-width="1" opacity="0.28"/>

  <!-- Chip traces to bottom edge -->
  <line x1="1065" y1="338" x2="1065" y2="500" stroke="#E3BB9B" stroke-width="1" opacity="0.28"/>
  <line x1="1091" y1="338" x2="1091" y2="500" stroke="#E3BB9B" stroke-width="1" opacity="0.28"/>
  <line x1="1117" y1="338" x2="1117" y2="500" stroke="#E3BB9B" stroke-width="1" opacity="0.28"/>
  <line x1="1143" y1="338" x2="1143" y2="500" stroke="#E3BB9B" stroke-width="1" opacity="0.28"/>
  <line x1="1169" y1="338" x2="1169" y2="500" stroke="#E3BB9B" stroke-width="1" opacity="0.28"/>
  <line x1="1195" y1="338" x2="1195" y2="500" stroke="#E3BB9B" stroke-width="1" opacity="0.28"/>

  <!-- Chip package body -->
  <rect x="1050" y="170" width="160" height="160" rx="10" fill="rgba(227,187,155,0.05)" stroke="#E3BB9B" stroke-width="1.5"/>

  <!-- Pin 1 marker -->
  <circle cx="1064" cy="184" r="4.5" fill="none" stroke="#E3BB9B" stroke-width="1" opacity="0.55"/>

  <!-- Inner die outline -->
  <rect x="1078" y="198" width="104" height="104" rx="5" fill="none" stroke="#E3BB9B" stroke-width="0.75" opacity="0.28"/>

  <!-- Logic blocks -->
  <rect x="1086" y="206" width="38" height="38" rx="3" fill="none" stroke="#E3BB9B" stroke-width="0.6" opacity="0.22"/>
  <rect x="1134" y="206" width="38" height="38" rx="3" fill="none" stroke="#E3BB9B" stroke-width="0.6" opacity="0.22"/>
  <rect x="1086" y="254" width="38" height="38" rx="3" fill="none" stroke="#E3BB9B" stroke-width="0.6" opacity="0.22"/>
  <rect x="1134" y="254" width="38" height="38" rx="3" fill="none" stroke="#E3BB9B" stroke-width="0.6" opacity="0.22"/>

  <!-- Internal routing -->
  <line x1="1124" y1="225" x2="1134" y2="225" stroke="#E3BB9B" stroke-width="0.75" opacity="0.2"/>
  <line x1="1105" y1="244" x2="1105" y2="254" stroke="#E3BB9B" stroke-width="0.75" opacity="0.2"/>
  <line x1="1153" y1="244" x2="1153" y2="254" stroke="#E3BB9B" stroke-width="0.75" opacity="0.2"/>
  <line x1="1124" y1="273" x2="1134" y2="273" stroke="#E3BB9B" stroke-width="0.75" opacity="0.2"/>

  <!-- Pads: Left -->
  <rect x="1042" y="181" width="8" height="8" rx="1" fill="#E3BB9B" opacity="0.6"/>
  <rect x="1042" y="207" width="8" height="8" rx="1" fill="#E3BB9B" opacity="0.6"/>
  <rect x="1042" y="233" width="8" height="8" rx="1" fill="#E3BB9B" opacity="0.6"/>
  <rect x="1042" y="259" width="8" height="8" rx="1" fill="#E3BB9B" opacity="0.6"/>
  <rect x="1042" y="285" width="8" height="8" rx="1" fill="#E3BB9B" opacity="0.6"/>
  <rect x="1042" y="311" width="8" height="8" rx="1" fill="#E3BB9B" opacity="0.6"/>

  <!-- Pads: Right -->
  <rect x="1210" y="181" width="8" height="8" rx="1" fill="#E3BB9B" opacity="0.6"/>
  <rect x="1210" y="207" width="8" height="8" rx="1" fill="#E3BB9B" opacity="0.6"/>
  <rect x="1210" y="233" width="8" height="8" rx="1" fill="#E3BB9B" opacity="0.6"/>
  <rect x="1210" y="259" width="8" height="8" rx="1" fill="#E3BB9B" opacity="0.6"/>
  <rect x="1210" y="285" width="8" height="8" rx="1" fill="#E3BB9B" opacity="0.6"/>
  <rect x="1210" y="311" width="8" height="8" rx="1" fill="#E3BB9B" opacity="0.6"/>

  <!-- Pads: Top -->
  <rect x="1061" y="162" width="8" height="8" rx="1" fill="#E3BB9B" opacity="0.6"/>
  <rect x="1087" y="162" width="8" height="8" rx="1" fill="#E3BB9B" opacity="0.6"/>
  <rect x="1113" y="162" width="8" height="8" rx="1" fill="#E3BB9B" opacity="0.6"/>
  <rect x="1139" y="162" width="8" height="8" rx="1" fill="#E3BB9B" opacity="0.6"/>
  <rect x="1165" y="162" width="8" height="8" rx="1" fill="#E3BB9B" opacity="0.6"/>
  <rect x="1191" y="162" width="8" height="8" rx="1" fill="#E3BB9B" opacity="0.6"/>

  <!-- Pads: Bottom -->
  <rect x="1061" y="330" width="8" height="8" rx="1" fill="#E3BB9B" opacity="0.6"/>
  <rect x="1087" y="330" width="8" height="8" rx="1" fill="#E3BB9B" opacity="0.6"/>
  <rect x="1113" y="330" width="8" height="8" rx="1" fill="#E3BB9B" opacity="0.6"/>
  <rect x="1139" y="330" width="8" height="8" rx="1" fill="#E3BB9B" opacity="0.6"/>
  <rect x="1165" y="330" width="8" height="8" rx="1" fill="#E3BB9B" opacity="0.6"/>
  <rect x="1191" y="330" width="8" height="8" rx="1" fill="#E3BB9B" opacity="0.6"/>

</svg>
